<svg width="100%" id="svg" viewBox="0 60 1440 630" xmlns="http://www.w3.org/2000/svg" class="transition duration-300 ease-in-out delay-150"><defs><linearGradient id="gradient" x1="0%" y1="50%" x2="100%" y2="50%"><stop offset="5%" stop-color="#c550de"></stop><stop offset="95%" stop-color="#9900ef"></stop></linearGradient></defs><path d="M 0,700 L 0,175 C 90.89285714285714,195.42857142857144 181.78571428571428,215.85714285714286 302,229 C 422.2142857142857,242.14285714285714 571.7499999999999,248.00000000000003 712,223 C 852.2500000000001,197.99999999999997 983.2142857142858,142.1428571428571 1103,129 C 1222.7857142857142,115.85714285714288 1331.392857142857,145.42857142857144 1440,175 L 1440,700 L 0,700 Z" stroke="none" stroke-width="0" fill="url(#gradient)" fill-opacity="0.53" class="transition-all duration-300 ease-in-out delay-150 path-0"></path><defs><linearGradient id="gradient" x1="0%" y1="50%" x2="100%" y2="50%"><stop offset="5%" stop-color="#c550de"></stop><stop offset="95%" stop-color="#9900ef"></stop></linearGradient></defs><path d="M 0,700 L 0,408 C 116.96428571428572,405.42857142857144 233.92857142857144,402.85714285714283 348,393 C 462.07142857142856,383.14285714285717 573.2500000000001,366 694,348 C 814.7499999999999,330 945.0714285714287,311.14285714285717 1071,321 C 1196.9285714285713,330.85714285714283 1318.4642857142858,369.42857142857144 1440,408 L 1440,700 L 0,700 Z" stroke="none" stroke-width="0" fill="url(#gradient)" fill-opacity="1" class="transition-all duration-300 ease-in-out delay-150 path-1"></path></svg>
