<svg width="100%" id="svg" viewBox="0 60 1440 330" xmlns="http://www.w3.org/2000/svg" class="transition duration-300 ease-in-out delay-150"><defs><linearGradient id="gradient" x1="0%" y1="50%" x2="100%" y2="50%"><stop offset="5%" stop-color="#c550de"></stop><stop offset="95%" stop-color="#9900ef"></stop></linearGradient></defs><path d="M 0,400 L 0,100 C 85.06220095693783,112.66028708133972 170.12440191387566,125.32057416267943 279,118 C 387.87559808612434,110.67942583732057 520.5645933014353,83.377990430622 616,84 C 711.4354066985647,84.622009569378 769.617224880383,113.16746411483254 861,126 C 952.382775119617,138.83253588516746 1076.9665071770335,135.95215311004785 1179,129 C 1281.0334928229665,122.04784688995217 1360.5167464114834,111.02392344497608 1440,100 L 1440,400 L 0,400 Z" stroke="none" stroke-width="0" fill="url(#gradient)" fill-opacity="0.53" class="transition-all duration-300 ease-in-out delay-150 path-0"></path><defs><linearGradient id="gradient" x1="0%" y1="50%" x2="100%" y2="50%"><stop offset="5%" stop-color="#c550de"></stop><stop offset="95%" stop-color="#9900ef"></stop></linearGradient></defs><path d="M 0,400 L 0,233 C 95.2153110047847,251.755980861244 190.4306220095694,270.511961722488 278,265 C 365.5693779904306,259.488038277512 445.4928229665072,229.7081339712919 545,236 C 644.5071770334928,242.2918660287081 763.598086124402,284.6555023923445 879,275 C 994.401913875598,265.3444976076555 1106.114832535885,203.66985645933013 1199,188 C 1291.885167464115,172.33014354066987 1365.9425837320575,202.66507177033492 1440,233 L 1440,400 L 0,400 Z" stroke="none" stroke-width="0" fill="url(#gradient)" fill-opacity="1" class="transition-all duration-300 ease-in-out delay-150 path-1"></path></svg>
