<svg viewBox="0 0 440 95" xmlns="http://www.w3.org/2000/svg">
  <rect x="1" y="1" width="438" height="93" rx="12" fill="white" stroke="#d0d7de" stroke-width="1.5"/>
  <text x="220" y="30" text-anchor="middle" font-size="15" font-weight="600" font-family="sans-serif" fill="#24292f">Connect with me</text>
  <g transform="translate(30,47)">
    <path d="M20.317 4.37a19.791 19.791 0 0 0-4.885-1.515.074.074 0 0 0-.079.037c-.21.375-.444.864-.608 1.25a18.27 18.27 0 0 0-5.487 0 12.64 12.64 0 0 0-.617-1.25.077.077 0 0 0-.079-.037A19.736 19.736 0 0 0 3.677 4.37a.07.07 0 0 0-.032.027C.533 9.046-.32 13.58.099 18.057.1 18.082.114 18.105.134 18.12a19.9 19.9 0 0 0 5.993 3.03.078.078 0 0 0 .084-.028 14.09 14.09 0 0 0 1.226-1.994.076.076 0 0 0-.041-.106 13.107 13.107 0 0 1-1.872-.892.077.077 0 0 1-.008-.128 10.2 10.2 0 0 0 .372-.292.074.074 0 0 1 .077-.01c3.928 1.793 8.18 1.793 12.062 0a.074.074 0 0 1 .078.01c.12.098.246.198.373.292a.077.077 0 0 1-.006.127 12.299 12.299 0 0 1-1.873.892.077.077 0 0 0-.041.107c.36.698.772 1.362 1.225 1.993a.076.076 0 0 0 .084.028 19.839 19.839 0 0 0 6.002-3.03.077.077 0 0 0 .032-.054c.5-5.177-.838-9.674-3.549-13.66a.061.061 0 0 0-.031-.03z" fill="#5865F2"/>
  </g>
  <text x="62" y="66" font-size="13" font-family="sans-serif" fill="#5865F2">nekoraru22</text>
  <text x="220" y="66" text-anchor="middle" font-size="16" fill="#8b949e">|</text>
  <g transform="translate(238,47)">
    <path d="M.287 0v24H2.31V0zm21.403 0v24h2.023V0zM2.31 0v2.022h19.38V0zm0 21.978V24h19.38v-2.022zM6.625 5.82v12.36h2.36V5.82zm8.39 0v12.36h2.36V5.82zM6.625 5.82h2.36V8.18h-2.36zm8.39 0h2.36V8.18h-2.36zM6.625 15.82h2.36v2.36h-2.36zm8.39 0h2.36v2.36h-2.36zM8.985 8.18v7.64h6.03V8.18z" fill="#0DBD8B"/>
  </g>
  <text x="270" y="66" font-size="13" font-family="sans-serif" fill="#0DBD8B">@neko:nekoraru.me</text>
</svg>
