<svg width="100%" id="svg" viewBox="0 0 1440 620" xmlns="http://www.w3.org/2000/svg" class="transition duration-300 ease-in-out delay-150"><defs><linearGradient id="gradient" x1="0%" y1="50%" x2="100%" y2="50%"><stop offset="5%" stop-color="#c550de"></stop><stop offset="95%" stop-color="#9900ef"></stop></linearGradient></defs><path d="M 0,700 L 0,175 C 67.98205128205129,164.4897435897436 135.96410256410257,153.9794871794872 216,172 C 296.0358974358974,190.0205128205128 388.125641025641,236.57179487179485 465,222 C 541.874358974359,207.42820512820515 603.5333333333333,131.73333333333335 687,118 C 770.4666666666667,104.26666666666667 875.7410256410255,152.4948717948718 970,181 C 1064.2589743589745,209.5051282051282 1147.5025641025643,218.2871794871795 1224,214 C 1300.4974358974357,209.7128205128205 1370.248717948718,192.35641025641024 1440,175 L 1440,700 L 0,700 Z" stroke="none" stroke-width="0" fill="url(#gradient)" fill-opacity="0.53" class="transition-all duration-300 ease-in-out delay-150 path-0" transform="rotate(-180 720 350)"></path><defs><linearGradient id="gradient" x1="0%" y1="50%" x2="100%" y2="50%"><stop offset="5%" stop-color="#c550de"></stop><stop offset="95%" stop-color="#9900ef"></stop></linearGradient></defs><path d="M 0,700 L 0,408 C 67.21538461538461,388.3948717948718 134.43076923076922,368.7897435897436 211,382 C 287.5692307692308,395.2102564102564 373.4923076923077,441.2358974358974 468,436 C 562.5076923076923,430.7641025641026 665.6000000000001,374.2666666666666 744,339 C 822.3999999999999,303.7333333333334 876.1076923076922,289.6974358974359 943,321 C 1009.8923076923078,352.3025641025641 1089.9692307692308,428.9435897435897 1175,451 C 1260.0307692307692,473.0564102564103 1350.0153846153846,440.5282051282052 1440,408 L 1440,700 L 0,700 Z" stroke="none" stroke-width="0" fill="url(#gradient)" fill-opacity="1" class="transition-all duration-300 ease-in-out delay-150 path-1" transform="rotate(-180 720 350)"></path><text x="720" y="130" font-size="72" font-weight="bold" font-family="sans-serif" fill="white" text-anchor="middle">Hi! I'm Neko</text><text x="720" y="190" font-size="35" font-family="sans-serif" fill="white" text-anchor="middle">A curious programer cat ฅ^•ﻌ•^ฅ</text></svg>
